<svg width="30" height="31" fill="none" xmlns="http://www.w3.org/2000/svg"><g clip-path="url(#clip0)"><path d="M30 5.889a11.982 11.982 0 01-3.534 1.001 6.353 6.353 0 002.705-3.516 12.167 12.167 0 01-3.91 1.544 6.046 6.046 0 00-4.492-2.008c-3.398 0-6.154 2.847-6.154 6.357 0 .498.054.984.16 1.45C9.66 10.45 5.124 7.918 2.09 4.071a6.473 6.473 0 00-.832 3.196c0 2.207 1.087 4.153 2.737 5.292a6.003 6.003 0 01-2.788-.798v.08c0 3.08 2.122 5.65 4.936 6.235a6.043 6.043 0 01-1.621.223c-.398 0-.782-.04-1.159-.118.784 2.528 3.056 4.366 5.748 4.417a12.097 12.097 0 01-7.643 2.717c-.497 0-.986-.03-1.468-.087a16.991 16.991 0 009.433 2.861c11.321 0 17.51-9.69 17.51-18.092l-.021-.824A12.522 12.522 0 0030 5.89z" fill="#fff"/></g><defs><clipPath id="clip0"><path fill="#fff" d="M0 0h30v31H0z"/></clipPath></defs></svg>